<svg width="71" height="68" viewBox="0 0 71 68" fill="none" xmlns="http://www.w3.org/2000/svg">
<path fill-rule="evenodd" clip-rule="evenodd" d="M59.9263 5.36187C60.1306 5.51102 60.1361 5.7256 60.0779 5.93125C60.0205 6.13145 59.919 6.31489 59.8454 6.5102C59.79 6.65452 59.7332 6.80022 59.7023 6.95057C59.6655 7.13009 59.7886 7.27618 59.9567 7.26961C60.061 7.26361 60.169 7.25869 60.2672 7.22828C60.6038 7.12817 60.9393 7.18124 61.2796 7.22716C61.6325 7.27447 61.9247 7.40135 62.1571 7.69792C62.394 8.00171 62.7681 8.20577 62.7712 8.66617C62.7723 8.78214 62.925 8.74412 63.0295 8.74496C63.3241 8.74767 63.4399 8.86586 63.3784 9.11229C63.3191 9.35422 63.3553 9.63866 63.0832 9.80314C62.9553 9.87955 62.9949 10.0272 63.0829 10.1475C63.2686 10.4043 63.5271 10.5249 63.8276 10.5404C64.0746 10.5509 64.2758 10.6189 64.4654 10.7945C64.711 11.0217 65.0017 11.1032 65.3403 10.994C65.8132 10.8394 66.1996 10.9961 66.5325 11.3678C66.8124 11.6801 67.0764 12.0176 67.5033 12.1596C67.5928 12.1894 67.6982 12.2876 67.7244 12.3761C67.8118 12.6632 68.0169 12.7812 68.2832 12.8567C68.4216 12.8938 68.4878 13.0195 68.4773 13.1658C68.4533 13.452 68.6386 13.5569 68.8648 13.5484C69.3422 13.5322 69.7961 13.7055 70.2682 13.7134C70.4283 13.7147 70.5759 13.7568 70.6976 13.8785C70.8006 13.9815 70.8278 14.165 70.7181 14.2208C69.7267 14.7137 68.9887 15.5453 68.0935 16.1689C67.7522 16.4049 67.4581 16.7037 67.1431 16.9765C66.9428 17.1511 66.7776 17.335 66.7966 17.6391C66.8102 17.8642 66.6705 18.0367 66.5022 18.1652C64.8441 19.4371 63.4856 21.0227 61.975 22.4489C60.4634 23.8763 58.996 25.3507 57.5029 26.7994C56.9997 27.2885 56.4809 27.7604 55.9693 28.2416L55.9764 28.2486C54.6351 29.5525 53.2963 30.8608 51.9503 32.16C50.679 33.3892 49.3961 34.6042 48.1236 35.8299C47.5994 36.3353 47.0871 36.8523 46.5723 37.3671C46.3138 37.6256 46.0268 37.8143 45.6768 37.9607C45.0785 38.2102 44.5119 38.531 43.9255 38.8108C43.4567 39.0361 43.1326 39.4772 42.8036 39.8788C42.1418 40.6811 41.4147 41.4222 40.7329 42.2046C40.2557 42.7521 39.7595 43.2811 39.2893 43.8356C38.5 44.7676 37.7014 45.6926 36.9075 46.6199C36.1641 47.4874 35.4159 48.3503 34.6761 49.2212C33.5163 50.587 32.3306 51.9248 31.0351 53.1688C29.2927 54.8434 27.6203 56.5906 25.9082 58.298C23.0917 61.1052 20.2672 63.9062 17.4485 66.7109C17.245 66.9144 17.0381 67.1097 16.7819 67.2442C16.5188 67.3832 16.3437 67.3757 16.1445 67.1652C15.8588 66.8634 15.5282 66.5948 15.4221 66.1555C15.3703 65.9381 15.2123 65.7941 14.979 65.7559C14.5943 66.0376 14.4145 65.665 14.1902 65.4796C13.9961 65.3179 13.682 65.302 13.6106 64.9825C13.5863 64.8734 13.4381 64.8952 13.3427 64.8619C13.0041 64.7439 12.6212 64.7009 12.4034 64.3546C12.3881 64.3324 12.3727 64.308 12.3518 64.2938C12.3086 64.2667 12.2455 64.2105 12.2189 64.223C11.8322 64.4202 11.6579 63.8711 11.3072 63.9527C11.2817 63.9571 11.2552 63.9648 11.2296 63.9624C10.9175 63.9327 10.8096 63.8112 10.8914 63.5024C10.9395 63.3161 10.9803 63.2121 10.7218 63.2296C10.6673 63.2326 10.5576 63.1479 10.5549 63.0992C10.5248 62.6096 10.0888 62.2241 10.179 61.6984C10.2043 61.5467 9.7571 60.9617 9.57942 60.9334C9.33671 60.8952 9.21037 60.7757 9.09724 60.5799C9.05009 60.496 8.93589 60.4486 8.85421 60.3805C8.61468 60.1846 8.42847 59.9729 8.30027 59.6634C8.1366 59.2676 8.00983 58.849 7.72597 58.4845C7.50889 58.2076 7.55376 57.7906 7.57814 57.4151C7.60864 56.9492 7.37277 56.6584 6.90306 56.5125C6.76583 56.4695 6.66568 56.4245 6.60864 56.2873C6.55894 56.1661 6.50784 56.044 6.43852 55.9331C6.22543 55.5984 5.91475 55.3567 5.52697 55.4191C5.1599 55.4772 5.04027 55.33 4.86722 55.0489C4.6952 54.7668 4.41141 54.5356 4.13923 54.3326C3.90686 54.1577 3.64942 54.0313 3.53076 53.738C3.49637 53.6553 3.38219 53.5846 3.28896 53.5467C2.90131 53.3843 2.51775 53.1616 2.11366 53.1022C1.73848 53.0467 1.56976 52.8456 1.39206 52.5762C1.18745 52.2682 0.974846 51.9728 0.678102 51.7335C0.32889 51.4507 0.325394 51.1967 0.633033 50.868C1.12805 50.3356 1.61108 49.787 2.15046 49.2991C3.04063 48.4979 3.83497 47.6029 4.68771 46.7665C6.74598 44.7434 8.78203 42.7003 10.8333 40.6701C11.016 40.4898 11.2291 40.3352 11.4458 40.1934C11.7536 39.9956 12.0533 39.7918 12.3084 39.5298C13.774 38.0196 15.2294 36.4987 16.7057 34.999C17.8201 33.8682 18.8832 32.6952 19.8994 31.4753C20.3638 30.9196 20.9031 30.4248 21.418 29.9099C22.4451 28.8781 23.4431 27.8145 24.5182 26.8377C25.8855 25.5945 27.163 24.2632 28.4882 22.9801C30.541 20.9905 32.5761 18.9812 34.6183 16.9811C35.101 16.5077 35.5604 16.0155 36.1075 15.6089C36.3747 15.4119 36.5655 15.1158 36.8069 14.8791C38.2711 13.4406 39.734 12.0012 41.2087 10.5732C43.3936 8.45858 45.5857 6.35074 47.7811 4.24894C48.8503 3.22428 49.9345 2.21495 51.0163 1.2034C51.1682 1.06089 51.3363 0.937194 51.5033 0.814651C51.9308 0.50189 52.3672 0.301924 52.8433 0.752756C53.213 0.841854 53.4899 1.06357 53.7763 1.3132C54.0671 1.57007 54.4217 1.76559 54.8257 1.83205C55.2033 1.89454 55.4866 2.07469 55.6952 2.43028C55.9273 2.82541 56.0884 2.82818 56.5131 2.60016C56.9678 2.35607 57.4678 2.37342 57.9653 2.39087C58.051 2.39409 58.138 2.49439 58.2209 2.55661C58.5851 2.83143 58.9561 3.06908 59.4329 2.83331C59.4953 2.80141 59.588 2.81873 59.6648 2.83081C59.8087 2.85312 59.9023 2.94443 59.9362 3.08378C59.9543 3.157 59.9749 3.25576 59.944 3.31473C59.7332 3.7175 59.8058 4.17158 59.7133 4.59178C59.6452 4.90565 59.6439 5.15739 59.9263 5.36187Z" fill="#D0D0A7"/>
</svg>
